<?xml version="1.0" encoding="UTF-8" standalone="no"?>
<!DOCTYPE svg PUBLIC "-//W3C//DTD SVG 1.1//EN" "http://www.w3.org/Graphics/SVG/1.1/DTD/svg11.dtd">
<svg width="100%" height="100%" viewBox="0 0 1667 1667" version="1.1" xmlns="http://www.w3.org/2000/svg" xmlns:xlink="http://www.w3.org/1999/xlink" xml:space="preserve" xmlns:serif="http://www.serif.com/" style="fill-rule:evenodd;clip-rule:evenodd;stroke-linejoin:round;stroke-miterlimit:2;">
    <g transform="matrix(1,0,0,1,-1748.3,0)">
        <g id="Artboard1" transform="matrix(1,0,0,1,1748.3,0)">
            <rect x="0" y="0" width="1666.67" height="1666.67" style="fill:none;"/>
            <g transform="matrix(1,0,0,1,85.265,-418.298)">
                <path d="M684.438,671.982C684.438,607.803 632.41,555.775 568.231,555.775L178.922,555.775C114.742,555.775 62.715,607.803 62.715,671.982L62.715,1061.29C62.715,1125.47 114.742,1177.5 178.922,1177.5L568.231,1177.5C632.41,1177.5 684.438,1125.47 684.438,1061.29L684.438,671.982Z"/>
            </g>
            <g transform="matrix(1,0,0,1,827.81,-418.298)">
                <path d="M684.438,671.982C684.438,607.803 632.41,555.775 568.231,555.775L178.922,555.775C114.742,555.775 62.715,607.803 62.715,671.982L62.715,1061.29C62.715,1125.47 114.742,1177.5 178.922,1177.5L568.231,1177.5C632.41,1177.5 684.438,1125.47 684.438,1061.29L684.438,671.982Z"/>
            </g>
            <g transform="matrix(1,0,0,1,827.81,355.311)">
                <path d="M684.438,671.982C684.438,607.803 632.41,555.775 568.231,555.775L178.922,555.775C114.742,555.775 62.715,607.803 62.715,671.982L62.715,1061.29C62.715,1125.47 114.742,1177.5 178.922,1177.5L568.231,1177.5C632.41,1177.5 684.438,1125.47 684.438,1061.29L684.438,671.982Z"/>
            </g>
            <g transform="matrix(1,0,0,1,85.265,355.311)">
                <path d="M684.438,671.982C684.438,607.803 632.41,555.775 568.231,555.775L178.922,555.775C114.742,555.775 62.715,607.803 62.715,671.982L62.715,1061.29C62.715,1125.47 114.742,1177.5 178.922,1177.5L568.231,1177.5C632.41,1177.5 684.438,1125.47 684.438,1061.29L684.438,671.982Z"/>
            </g>
        </g>
    </g>
</svg>
